<?xml version="1.0" encoding="utf-8"?>
<!-- Generator: Adobe Illustrator 21.1.0, SVG Export Plug-In . SVG Version: 6.00 Build 0)  -->
<svg version="1.1" id="Layer_1" xmlns="http://www.w3.org/2000/svg" xmlns:xlink="http://www.w3.org/1999/xlink" x="0px" y="0px"
	 viewBox="0 0 250 250" style="enable-background:new 0 0 250 250;" xml:space="preserve">
<style type="text/css">
	.st0{fill:#FFFFFF;stroke:#000000;stroke-miterlimit:10;}
	.st1{fill:#FFFFFF;}
	.st2{clip-path:url(#SVGID_2_);}
	.st3{fill:none;stroke:#6D6E71;stroke-width:1.5;stroke-miterlimit:10;}
	.st4{fill:none;stroke:#000000;stroke-width:5;stroke-miterlimit:10;}
	.st5{fill:#58595B;}
	.st6{clip-path:url(#SVGID_6_);}
	.st7{fill:none;stroke:#FFFFFF;stroke-width:5;stroke-miterlimit:10;}
</style>
<g>
	<path class="st1" d="M35.9,112.6c20,0,41.4,0,58.7,0c0.1-2.8,0.2-5.6,0.4-8.4c-5.6,2.1-11,4-16.6,5.2c-12.7,2.7-21.4-1-28-12.1
		c-2-3.4-3.7-6.9-5.6-10.6c-1.1,2.6-0.8,5-0.4,7.4c0.5,2.6,0.2,4.8-1.3,7.1C40.6,105,38.2,108.8,35.9,112.6z"/>
	<path class="st1" d="M1.1,137.7c-0.9,0-1.2,0.2-1,1.1c0.4,2.3,0.6,4.6,1,6.9c1.7,10.7,4.8,21,9.3,30.9
		c9.4,20.7,23.4,37.7,42.1,50.8c15.4,10.8,32.1,17.8,50.3,21c0,0,0.1-0.1,0.1-0.1c9-11.8,18.1-23.4,27.2-35.1
		c1.1-1.4,1.5-2.7,1.4-4.4c-1-12.3-1.9-24.7-2.7-37c-0.2-2.3-0.8-3.4-3.3-3.3c-3.5,0.2-29,0.3-33.4-0.2c-1.7-0.2-2.3,0-1.9,1.9
		c2.1,12.6,4.1,25.3,6.1,37.9c1.2,7.3-3.2,14-9.9,15.2c-7.6,1.4-14.1-3-15.4-10.6c-2.6-15.4-5-30.7-7.4-46.1
		c-0.6-3.8-1.3-7.6-1.7-11.4c-0.7-8.5,5.8-14.8,14.3-14.1c5,0.4,10,0.9,15,1.4c1.4,0.2,2.2-0.1,2.2-1.7c0-1,0.1-2.1,0.1-3.1
		c-15.2,0-37.9,0-49.9,0C29.4,137.7,15.2,137.7,1.1,137.7z"/>
	<path class="st1" d="M164.1,244c24.4-8.2,44.5-22.5,60.1-42.9c16-20.9,24.5-44.6,25.7-70.9c0.5-11.8-0.7-23.6-3.6-35.1
		c-1.6-6.2-3.5-12.1-5.8-17.7c-1.5,1.4-3.1,1.3-5.6-0.1c-8.3-5.1-16.6-10.3-25-15.3c-1.4-0.9-2.1-2-2.6-3.5c-0.8-2.5-1.6-5.1-4-7.6
		c0.4,5.5,0.1,10.2-0.3,15c-0.5,7.7-1.8,15.3-5.2,22.3c-4.7,9.6-12.1,14.7-23.1,14.6c-5.7-0.1-11.3-0.4-16.8-1.6
		c-2.2-0.5-2.8,0.1-2.9,2.4c-0.6,14.1-1.3,28.1-1.9,42.2c-0.5,10.9,1.1,21.7,1.8,32.5c0.8,12.3,1.8,24.5,2.6,36.7
		c0.2,3.1-0.9,6-2.8,8.5c-6.9,8.8-13.7,17.7-20.6,26.6c2.3-0.2,4.6-0.4,6.9-0.7C148.8,248.3,156.5,246.6,164.1,244z"/>
	<path class="st1" d="M145.1,77.9c9.3,3.9,19.1,5.3,29.1,5.7c3.4,0.1,5.4-1.2,6.6-4.3c2.4-5.9,3.1-12.1,3.4-18.4
		c0.4-7.4-0.5-14.7-0.5-22c0-1-0.5-1.4-1.3-1.8c-2.1-1.2-1.7-2.8-0.6-4.3c1.1-1.6,2.3-3.3,4.6-1.7c1.5,1,2.8,1,4.5,0.6
		c5.7-1.3,10.6,2.1,11.6,7.8c0.4,2.7,2.7,3.2,4.6,3.8c2.5,0.8,5.1,0.9,7.7,0.3c1.8-0.4,3.5-0.3,5.1,0.2c-5-5.8-10.6-11.2-16.8-16.2
		c-19.9-16.1-42.8-25.1-68.3-27.3c-7.6-0.6-15.2-0.6-22.9,0.2c-8.9,0.9-17.7,2.7-26.2,5.5c-24.5,8.1-44.8,22.4-60.5,42.8
		C11,67.4,2.7,88.4,0,111.5c-0.1,0.9,0.1,1.1,1,1.1c3.3,0,6.7,0,10.4,0c4.9-8.1,9.9-16.1,14.8-24.1c1-1.6,2.5-1.9,4-2.4
		c3.9-1.3,7.5-2.9,9.7-6.7c0.6-1,0.8-1.8,0.4-3c-1.9-6.4,1.3-11.4,7.9-12.6c1.4-0.3,2-1,2.5-2.1c1-1.9,2.5-2,4-0.9
		c1.5,1,3.6,2,2.3,4.4c-0.6,1.2-0.2,1.8,0.3,2.8c2.8,5.7,5.3,11.5,8.2,17.2c3.3,6.6,4,6.8,11.2,5c9.2-2.5,17.9-6.4,25.8-11.7
		c2.9-2,6.1-3,9.6-2.9c9.6,0.4,19.2,0.9,28.8,1.3C142.4,77,143.8,77.4,145.1,77.9z M102.2,48.6c0-14.9,13.1-25.6,26-25.2
		C141.9,23.9,153,35,152.9,49c-0.1,13.8-11.7,25.2-25.6,25.1C113.4,74,102.2,62.5,102.2,48.6z"/>
</g>
</svg>
