<?xml version="1.0" encoding="utf-8"?>
<!-- Generator: Adobe Illustrator 21.1.0, SVG Export Plug-In . SVG Version: 6.00 Build 0)  -->
<svg version="1.1" id="Layer_1" xmlns="http://www.w3.org/2000/svg" xmlns:xlink="http://www.w3.org/1999/xlink" x="0px" y="0px"
	 viewBox="0 0 300 50" style="enable-background:new 0 0 300 50;" xml:space="preserve">
<style type="text/css">
	.st0{fill:#FFFFFF;stroke:#000000;stroke-miterlimit:10;}
	.st1{fill:#FFFFFF;}
	.st2{clip-path:url(#SVGID_2_);}
	.st3{fill:none;stroke:#6D6E71;stroke-width:1.5;stroke-miterlimit:10;}
	.st4{fill:none;stroke:#000000;stroke-width:5;stroke-miterlimit:10;}
	.st5{fill:#58595B;}
	.st6{clip-path:url(#SVGID_6_);}
	.st7{fill:none;stroke:#FFFFFF;stroke-width:5;stroke-miterlimit:10;}
</style>
<g>
	<rect class="st1" width="300" height="50"/>
	<rect x="15" y="20" width="10" height="10"/>
	<g>
		<path d="M40.6,17.1H42l3.6,14.6h0l4.3-14.6h1.2l4.2,14.6h0L59,17.1h1.2L56,33.8h-1.4l-4.1-14.4h0l-4.2,14.4h-1.4L40.6,17.1z"/>
		<path d="M62.7,15.9H64v6.7h0.1c1.2-0.8,2.8-1.3,4.4-1.3c2.3,0,3.6,1,3.6,3.3v9.2h-1.3v-8.9c0-1.7-0.8-2.4-2.8-2.4
			c-1.3,0-2.8,0.5-4,1.1v10.2h-1.3V15.9z"/>
		<path d="M74.8,27.8v-0.3c0-4.3,2.4-6.2,5.3-6.2c3.3,0,4.8,2,4.8,5.7v0.8h-8.8c0,3.5,1.5,5.1,4.6,5.1c1.6,0,2.8-0.4,3.8-0.9v1
			c-0.8,0.5-2.1,1-4,1C76.8,34,74.8,31.8,74.8,27.8z M76.2,26.8h7.5c0-2.9-1.1-4.3-3.5-4.3C78.2,22.4,76.4,23.6,76.2,26.8z"/>
		<path d="M87.8,21.5h1.3V23h0.1c0.8-0.8,2.1-1.6,3.6-1.6c0.2,0,0.5,0,0.7,0.1v1.2c-0.3,0-0.6-0.1-0.8-0.1c-1.4,0-2.7,0.6-3.6,1.4
			v9.9h-1.3V21.5z"/>
		<path d="M95.2,27.8v-0.3c0-4.3,2.4-6.2,5.3-6.2c3.3,0,4.8,2,4.8,5.7v0.8h-8.8c0,3.5,1.5,5.1,4.6,5.1c1.6,0,2.8-0.4,3.8-0.9v1
			c-0.8,0.5-2.1,1-4,1C97.1,34,95.2,31.8,95.2,27.8z M96.5,26.8h7.5c0-2.9-1.1-4.3-3.5-4.3C98.5,22.4,96.7,23.6,96.5,26.8z"/>
		<path d="M115.5,31.3v-8.6h-1.8v-1.1h1.8v-2.9h1.3v2.9h3.3v1.1h-3.3v8.4c0,1.2,0.4,1.8,1.9,1.8c0.5,0,1.2-0.1,1.7-0.2v0.9
			c-0.4,0.2-1,0.4-2,0.4C116.6,33.9,115.5,33.1,115.5,31.3z"/>
		<path d="M122.3,27.9v-0.3c0-4,2.3-6.2,5.5-6.2c3.3,0,5.5,2.1,5.5,6.1v0.3c0,4-2.3,6.2-5.5,6.2C124.4,34,122.3,31.9,122.3,27.9z
			 M131.9,27.9v-0.5c0-3.6-1.8-5-4.2-5c-2.4,0-4.1,1.8-4.1,5v0.5c0,3.6,1.8,5,4.1,5C130.2,33,131.9,31.2,131.9,27.9z"/>
		<path d="M138.1,28.2c0-1.8,1-2.5,2.5-3.8c1.2-1,1.9-2.3,1.9-3.9c0-2-1.3-2.9-3.5-2.9c-1.3,0-2.6,0.3-3.7,0.9v-1.1
			c1.1-0.6,2.6-1,4.1-1c2.6,0,4.6,1.4,4.6,4.1c0,1.9-0.9,3.3-2.5,4.7c-1.2,1-2.1,1.6-2.1,3v2.4h-1.3V28.2z M138.1,32.5h1.5v1.7h-1.5
			V32.5z"/>
	</g>
</g>
</svg>
